HIERARCHY
ROOT Pelvis
{
	OFFSET 0.000000 0.000000 0.000000
	CHANNELS 6 Xposition Yposition Zposition Xrotation Yrotation Zrotation
	JOINT LeftUpLeg_virtual
	{
		OFFSET 0.000000 0.000000 0.000000
		CHANNELS 3 Xrotation Yrotation Zrotation
		JOINT LeftUpLeg
		{
			OFFSET 18.735201 -5.666702 -4.541200
			CHANNELS 3 Xrotation Yrotation Zrotation
			JOINT LeftLeg
			{
				OFFSET -0.021200 -31.938179 0.493100
				CHANNELS 3 Xrotation Yrotation Zrotation
				JOINT LeftFoot
				{
					OFFSET 0.021200 -31.938179 -4.336299
					CHANNELS 3 Xrotation Yrotation Zrotation
					JOINT LeftToeBase
					{
						OFFSET 0.943001 -26.722000 15.023500
						CHANNELS 3 Xrotation Yrotation Zrotation
						End Site
						{
							OFFSET 0 0 0
						}
					}
				}
			}
		}
	}
	JOINT RightUpLeg_virtual
	{
		OFFSET 0.000000 0.000000 0.000000
		CHANNELS 3 Xrotation Yrotation Zrotation
		JOINT RightUpLeg
		{
			OFFSET -18.735201 -5.666702 -4.541200
			CHANNELS 3 Xrotation Yrotation Zrotation
			JOINT RightLeg
			{
				OFFSET 0.018946 -31.938133 0.493100
				CHANNELS 3 Xrotation Yrotation Zrotation
				JOINT RightFoot
				{
					OFFSET -0.018946 -31.938126 -4.336299
					CHANNELS 3 Xrotation Yrotation Zrotation
					JOINT RightToeBase
					{
						OFFSET -0.943001 -26.722004 15.023500
						CHANNELS 3 Xrotation Yrotation Zrotation
						End Site
						{
							OFFSET 0 0 0
						}
					}
				}
			}
		}
	}
	JOINT Hips_virtual
	{
		OFFSET 0.000000 0.000000 0.000000
		CHANNELS 3 Xrotation Yrotation Zrotation
		JOINT Hips
		{
			OFFSET -0.000000 -0.000000 -0.000000
			CHANNELS 3 Xrotation Yrotation Zrotation
			JOINT Spine
			{
				OFFSET 0.000000 10.199997 -0.299500
				CHANNELS 3 Xrotation Yrotation Zrotation
				JOINT Spine1
				{
					OFFSET 0.000000 11.900002 -1.516600
					CHANNELS 3 Xrotation Yrotation Zrotation
					JOINT Spine2
					{
						OFFSET 0.000000 13.600006 -2.842500
						CHANNELS 3 Xrotation Yrotation Zrotation
						JOINT Neck_virtual
						{
							OFFSET 0.000000 0.000000 0.000000
							CHANNELS 3 Xrotation Yrotation Zrotation
							JOINT Neck
							{
								OFFSET 0.000000 9.624100 -2.890100
								CHANNELS 3 Xrotation Yrotation Zrotation
								JOINT Head
								{
									OFFSET 0.000000 14.068802 -1.351900
									CHANNELS 3 Xrotation Yrotation Zrotation
									End Site
									{
										OFFSET 0 0 0
									}
								}
							}
						}
						JOINT LeftShoulder_virtual
						{
							OFFSET 0.000000 0.000000 0.000000
							CHANNELS 3 Xrotation Yrotation Zrotation
							JOINT LeftShoulder
							{
								OFFSET 15.263000 10.923401 -0.547700
								CHANNELS 3 Xrotation Yrotation Zrotation
								JOINT LeftArm
								{
									OFFSET 25.438599 -2.830597 -13.032500
									CHANNELS 3 Xrotation Yrotation Zrotation
									JOINT LeftForeArm
									{
										OFFSET 29.960503 0.000000 0.000000
										CHANNELS 3 Xrotation Yrotation Zrotation
										JOINT LeftHand
										{
											OFFSET 27.849251 0.000000 0.000000
											CHANNELS 3 Xrotation Yrotation Zrotation
											End Site
											{
												OFFSET 0 0 0
											}
										}
									}
								}
							}
						}
						JOINT RightShoulder_virtual
						{
							OFFSET 0.000000 0.000000 0.000000
							CHANNELS 3 Xrotation Yrotation Zrotation
							JOINT RightShoulder
							{
								OFFSET -15.263000 10.923401 -0.547700
								CHANNELS 3 Xrotation Yrotation Zrotation
								JOINT RightArm
								{
									OFFSET -25.438599 -2.830597 -13.032500
									CHANNELS 3 Xrotation Yrotation Zrotation
									JOINT RightForeArm
									{
										OFFSET -29.960503 0.000000 0.000000
										CHANNELS 3 Xrotation Yrotation Zrotation
										JOINT RightHand
										{
											OFFSET -27.849251 0.000000 0.000000
											CHANNELS 3 Xrotation Yrotation Zrotation
											End Site
											{
												OFFSET 0 0 0
											}
										}
									}
								}
							}
						}
					}
				}
			}
		}
	}
}
MOTION
Frames: 10
Frame Time: 0.03333333
0.608852 95.056297 3.385345 0.000000 0.000000 0.000000 -3.420355 3.942451 -3.389127 -37.517932 -8.226928 -4.771213 52.383122 -0.415874 0.020983 26.569924 4.036857 12.577582 0.000000 0.000000 0.000000 -3.420355 3.942451 -3.389127 -18.939090 -11.828253 8.056941 31.679206 -0.317805 -0.142089 17.734523 -0.681777 -8.881679 0.000000 0.000000 0.000000 -3.420355 3.942451 -3.389127 0.000000 0.000000 0.000000 7.484028 -0.399293 -0.578371 -2.114712 -0.634066 1.955411 0.000000 0.000000 0.000000 -2.107417 -0.526124 1.991271 -1.370083 -0.531252 0.127326 0.000000 0.000000 0.000000 -2.107417 -0.526124 1.991271 1.091369 1.577359 -3.543032 -1.207960 1.492935 -78.012775 20.698680 -13.799220 -0.079233 0.000000 0.000000 0.000000 -2.107417 -0.526124 1.991271 0.487466 5.285027 4.298001 -7.282518 4.832114 74.584846 13.988542 13.383150 -4.466971 0.000000 0.000000 0.000000 
0.813071 95.753128 5.824909 0.000000 0.000000 0.000000 -2.704116 2.925210 -2.428013 -38.103194 -5.986635 -4.617611 44.382856 -0.399495 0.010108 25.984599 3.617570 11.107207 0.000000 0.000000 0.000000 -2.704116 2.925210 -2.428013 -16.965213 -12.645851 6.236583 30.840186 2.245643 0.042128 15.903197 -0.783084 -8.824885 0.000000 0.000000 0.000000 -2.704116 2.925210 -2.428013 0.000000 0.000000 0.000000 6.864771 -0.100150 -0.891630 -2.080432 -0.313499 1.675652 0.000000 0.000000 0.000000 -2.058832 -0.215386 1.707925 -1.365046 -0.396705 0.048563 0.000000 0.000000 0.000000 -2.058832 -0.215386 1.707925 1.161757 2.620607 -4.138580 -0.675547 1.681685 -77.753999 23.741078 -14.201286 0.898225 0.000000 0.000000 0.000000 -2.058832 -0.215386 1.707925 0.521029 5.806646 4.065538 -8.045848 5.987358 74.740349 12.972007 13.640125 -3.836560 0.000000 0.000000 0.000000 
1.054484 96.004227 8.345375 0.000000 0.000000 0.000000 -2.032545 1.966884 -2.126623 -38.167640 -2.840529 -3.932930 35.113914 -2.340826 -0.155130 28.063794 4.648037 10.039264 0.000000 0.000000 0.000000 -2.032545 1.966884 -2.126623 -15.068039 -15.128819 5.021908 30.455615 6.082708 0.391547 13.886139 -0.698520 -10.124442 0.000000 0.000000 0.000000 -2.032545 1.966884 -2.126623 0.000000 0.000000 0.000000 6.505077 0.233508 -0.258567 -2.164171 -0.087649 1.327397 0.000000 0.000000 0.000000 -2.103373 -0.002019 1.355804 -1.340310 -0.225688 -0.098291 0.000000 0.000000 0.000000 -2.103373 -0.002019 1.355804 1.326057 3.845517 -5.238572 -0.005114 2.080358 -77.146502 25.494453 -14.592165 1.554063 0.000000 0.000000 0.000000 -2.103373 -0.002019 1.355804 0.568234 6.440958 3.658639 -8.430294 8.119883 74.878305 10.227162 15.268106 -3.522352 0.000000 0.000000 0.000000 
1.392776 95.916016 10.876778 0.000000 0.000000 0.000000 -1.050409 0.616520 -1.928269 -39.020017 1.188825 -1.688572 26.983350 -2.122050 -0.151677 29.896988 2.362248 4.903506 0.000000 0.000000 0.000000 -1.050409 0.616520 -1.928269 -14.207859 -17.637557 3.539283 31.055972 9.670102 0.569729 11.750079 -0.284451 -10.786117 0.000000 0.000000 0.000000 -1.050409 0.616520 -1.928269 0.000000 0.000000 0.000000 6.135907 0.707328 0.750979 -2.415187 0.285826 0.861850 0.000000 0.000000 0.000000 -2.279706 0.356749 0.875466 -1.303172 -0.033147 -0.228187 0.000000 0.000000 0.000000 -2.279706 0.356749 0.875466 1.561003 4.901430 -6.501985 0.928783 2.852965 -76.443703 25.950568 -15.000407 2.001420 0.000000 0.000000 0.000000 -2.279706 0.356749 0.875466 0.610001 6.612299 3.312221 -8.250056 11.492344 74.614769 8.393951 17.168722 -3.295292 0.000000 0.000000 0.000000 
1.621142 95.722855 13.537422 0.000000 0.000000 0.000000 -0.579458 -0.412456 -2.333014 -39.252489 4.124059 1.332866 19.659846 1.179769 0.090912 31.477261 -1.295815 -1.737927 0.000000 0.000000 0.000000 -0.579458 -0.412456 -2.333014 -11.823500 -20.610215 3.009732 30.767970 12.929470 0.843034 9.630369 0.208437 -12.178251 0.000000 0.000000 0.000000 -0.579458 -0.412456 -2.333014 0.000000 0.000000 0.000000 6.236917 1.167926 1.063236 -2.713910 0.301719 1.515031 0.000000 0.000000 0.000000 -2.581278 0.432835 1.513153 -1.241008 0.254907 -0.600489 0.000000 0.000000 0.000000 -2.581278 0.432835 1.513153 2.076389 6.498103 -8.978071 2.173335 3.162901 -75.453564 25.663946 -15.542394 2.187241 0.000000 0.000000 0.000000 -2.581278 0.432835 1.513153 0.968730 7.637007 0.422386 -8.482539 11.768442 76.022881 9.287157 19.290447 -3.919859 0.000000 0.000000 0.000000 
1.847006 95.192352 16.334475 0.000000 0.000000 0.000000 -0.385481 -0.767677 -3.045166 -38.618617 3.029330 2.256718 11.324377 3.250915 0.010687 35.317184 -2.537008 -4.768321 0.000000 0.000000 0.000000 -0.385481 -0.767677 -3.045166 -8.807888 -22.609133 3.683514 31.214060 13.642492 0.874650 6.073550 0.709620 -14.497707 0.000000 0.000000 0.000000 -0.385481 -0.767677 -3.045166 0.000000 0.000000 0.000000 6.712183 1.467168 0.502555 -3.208121 -0.247009 3.170755 0.000000 0.000000 0.000000 -3.188771 0.045642 3.159575 -1.105298 0.611104 -1.072049 0.000000 0.000000 0.000000 -3.188771 0.045642 3.159575 2.835392 8.745192 -12.139153 3.471257 3.542353 -74.800994 26.017435 -15.657995 2.050267 0.000000 0.000000 0.000000 -3.188771 0.045642 3.159575 1.385071 9.746103 -3.580974 -8.462183 9.876572 78.056440 10.268711 20.394675 -4.235271 0.000000 0.000000 0.000000 
2.131436 94.193520 19.679136 0.000000 0.000000 0.000000 -0.232280 -0.470744 -3.986248 -37.630135 5.296154 2.448613 3.274272 -0.511455 -0.299093 44.298261 -3.466597 -4.624905 0.000000 0.000000 0.000000 -0.232280 -0.470744 -3.986248 -4.867976 -22.520399 5.706057 31.958079 11.173362 0.602774 0.671888 1.150716 -16.727787 0.000000 0.000000 0.000000 -0.232280 -0.470744 -3.986248 0.000000 0.000000 0.000000 8.361850 1.367033 1.823740 -4.428560 -0.841838 2.670546 0.000000 0.000000 0.000000 -4.391909 -0.486678 2.610560 -1.276971 0.680594 -0.431788 0.000000 0.000000 0.000000 -4.391909 -0.486678 2.610560 2.354687 13.088309 -9.808242 5.125867 2.817133 -77.012282 26.986810 -15.727931 1.865753 0.000000 0.000000 0.000000 -4.391909 -0.486678 2.610560 1.570656 10.149906 -3.118638 -8.103333 11.000790 78.111512 7.715929 21.566034 -3.226941 0.000000 0.000000 0.000000 
2.440371 92.292717 24.027678 0.000000 0.000000 0.000000 -0.083308 -0.174621 -4.631757 -37.609224 8.330066 3.161348 -0.495122 -5.200856 -1.769889 55.780652 -4.848814 -5.960609 0.000000 0.000000 0.000000 -0.083308 -0.174621 -4.631757 -0.971103 -21.583833 7.013156 34.458656 9.433710 0.249214 -6.414469 1.650278 -17.711830 0.000000 0.000000 0.000000 -0.083308 -0.174621 -4.631757 0.000000 0.000000 0.000000 7.404477 1.687356 1.719150 -4.027824 -1.000627 3.050760 0.000000 0.000000 0.000000 -4.043319 -0.619600 3.030189 -1.446759 0.716140 -0.336369 0.000000 0.000000 0.000000 -4.043319 -0.619600 3.030189 2.295809 12.822121 -9.630620 5.305736 4.107307 -77.522791 26.651340 -15.181634 1.988434 0.000000 0.000000 0.000000 -4.043319 -0.619600 3.030189 1.557805 9.742741 -3.276322 -7.876887 11.200367 78.394664 6.955489 21.553733 -2.946499 0.000000 0.000000 0.000000 
2.810431 90.870880 28.290903 0.000000 0.000000 0.000000 -0.351848 0.029998 -4.332316 -43.812791 8.995725 3.237493 13.879961 -6.856434 -3.709442 51.923399 -3.172894 -1.254061 0.000000 0.000000 0.000000 -0.351848 0.029998 -4.332316 2.586849 -21.187879 6.041371 35.766187 10.078325 0.362488 -11.072465 1.772506 -17.379929 0.000000 0.000000 0.000000 -0.351848 0.029998 -4.332316 0.000000 0.000000 0.000000 6.029771 1.853231 1.208166 -3.304955 -0.825250 2.956957 0.000000 0.000000 0.000000 -3.343146 -0.489881 2.978656 -1.538091 0.681623 -0.237359 0.000000 0.000000 0.000000 -3.343146 -0.489881 2.978656 2.183677 11.804459 -9.243084 4.942631 4.913843 -77.674004 26.682675 -13.783510 1.543231 0.000000 0.000000 0.000000 -3.343146 -0.489881 2.978656 1.399749 8.691797 -2.714116 -7.303341 12.078209 78.638277 10.044964 20.259092 -4.130486 0.000000 0.000000 0.000000 
3.294137 89.845039 32.625389 0.000000 0.000000 0.000000 0.104924 -0.008932 -3.244677 -47.861533 13.453338 1.835407 26.695564 -10.435285 -4.461225 44.614762 -1.266462 7.477590 0.000000 0.000000 0.000000 0.104924 -0.008932 -3.244677 4.309515 -20.707790 3.385449 36.580724 11.066317 0.701890 -12.660800 1.202250 -15.409902 0.000000 0.000000 0.000000 0.104924 -0.008932 -3.244677 0.000000 0.000000 0.000000 3.306941 1.764091 0.753600 -2.664006 -0.493148 2.338127 0.000000 0.000000 0.000000 -2.698873 -0.203345 2.432336 -1.479209 0.621995 -0.082059 0.000000 0.000000 0.000000 -2.698873 -0.203345 2.432336 1.866220 10.725610 -8.019005 5.387968 6.298379 -78.291166 28.718582 -12.787130 2.191701 0.000000 0.000000 0.000000 -2.698873 -0.203345 2.432336 1.133354 7.232520 -1.299496 -5.565595 12.917363 78.434607 11.166389 19.091405 -4.485718 0.000000 0.000000 0.000000 
